<?xml version="1.0" encoding="utf-8"?>
<!-- Generator: Adobe Illustrator 16.0.3, SVG Export Plug-In . SVG Version: 6.00 Build 0)  -->
<!DOCTYPE svg PUBLIC "-//W3C//DTD SVG 1.1//EN" "http://www.w3.org/Graphics/SVG/1.1/DTD/svg11.dtd">
<svg version="1.1" id="Calque_3" xmlns="http://www.w3.org/2000/svg" xmlns:xlink="http://www.w3.org/1999/xlink" x="0px" y="0px"
	 width="450px" height="240px" viewBox="0 0 450 240" enable-background="new 0 0 450 240" xml:space="preserve">
<g>
	<path fill="#010101" d="M37.03,148.719c-15.7,0-29.099-14.242-29.099-29.769c0-15.475,13.121-29.998,28.987-29.998
		c10.429,0,17.942,5.045,24.054,12.95h7.681c-2.298-4.147-4.765-7.961-8.521-10.932c-6.449-5.215-14.803-8.297-23.101-8.297
		C17.126,82.671,0.921,99.1,0.921,118.891c0,19.849,16.43,36.111,36.22,36.111c8.073,0,15.978-2.975,22.316-7.963
		c3.98-3.197,6.783-7.344,9.475-11.604H61.25C55.197,143.336,47.458,148.719,37.03,148.719z"/>
	<path fill="#010101" d="M116.646,110.874c-4.821-6.224-11.381-10.147-19.512-10.147c-14.577,0-26.577,11.83-26.577,26.408
		c0,14.58,12.055,26.52,26.577,26.52c8.468,0,14.354-3.531,19.512-10.037v8.857h6.337v-50.516h-6.337V110.874z M96.798,147.82
		c-11.159,0-19.96-9.697-19.96-20.631c0-10.878,8.745-20.632,19.96-20.632c11.157,0,19.848,9.754,19.848,20.632
		C116.646,138.123,107.901,147.82,96.798,147.82z"/>
	<rect x="130.663" y="84.129" fill="#010101" width="6.786" height="68.345"/>
	<polygon fill="#010101" points="163.072,144.459 145.917,101.958 139.187,101.958 159.764,152.475 166.604,152.475 
		187.126,101.958 180.51,101.958 	"/>
	<rect x="189.927" y="101.958" fill="#010101" width="6.786" height="50.52"/>
	<rect x="189.927" y="84.129" fill="#010101" width="6.786" height="11.326"/>
	<path fill="#010101" d="M225.924,100.727c-6.392,0-10.933,3.365-15.138,7.851v-6.619h-6.279v50.52h6.672v-30.781
		c-0.056-8.128,6.672-15.14,14.856-15.14c10.262,0,15.42,8.915,15.42,18.11v27.811h6.28v-27.811
		C247.735,111.549,240.052,100.727,225.924,100.727z"/>
	<polygon fill="#010101" points="310.699,84.129 279.863,123.32 279.863,84.129 273.19,84.129 273.19,152.475 279.863,152.475 
		279.863,133.695 288.609,122.816 310.868,152.475 319.334,152.475 292.869,117.433 319.334,84.129 	"/>
	<rect x="321.802" y="84.129" fill="#010101" width="6.616" height="68.345"/>
	<path fill="#010101" d="M383.198,114.687c-4.6-8.579-13.794-13.96-23.495-13.96c-14.463,0-26.685,12.057-26.685,26.52
		c0,14.578,12.334,26.408,26.8,26.408c6.896,0,13.681-2.748,18.669-7.512c3.029-2.861,4.822-6.447,6.45-10.205h-7.121
		c-3.587,7.008-9.923,11.889-18.109,11.889c-4.988,0-9.867-2.02-13.568-5.438c-3.813-3.479-5.491-7.74-6.224-12.785h46.593
		C386.504,124.33,385.775,119.285,383.198,114.687z M340.135,123.77c2.019-9.474,9.475-17.212,19.682-17.212
		c8.578,0,17.774,5.267,19.79,17.212H340.135z"/>
	<rect x="391.438" y="101.958" fill="#010101" width="6.674" height="50.52"/>
	<rect x="391.438" y="84.129" fill="#010101" width="6.674" height="11.549"/>
	<path fill="#010101" d="M427.434,100.727c-6.503,0-11.044,3.365-15.305,7.851v-6.619h-6.393v50.52h6.728v-30.781
		c-0.056-8.186,6.839-15.14,15.081-15.14c10.207,0,15.59,8.915,15.59,18.11v27.811h6.277v-27.811
		C449.412,111.549,441.62,100.727,427.434,100.727z"/>
</g>
</svg>
