<svg xmlns="http://www.w3.org/2000/svg" width="51.969" height="96.123" viewBox="0 0 51.969 96.123">
  <g id="facebooklaranja" transform="translate(-22.077)">
    <path id="Caminho_3" data-name="Caminho 3" d="M72.089.02,59.624,0C45.62,0,36.57,9.285,36.57,23.656V34.563H24.037a1.96,1.96,0,0,0-1.96,1.961v15.8a1.96,1.96,0,0,0,1.96,1.96H36.57V94.163a1.959,1.959,0,0,0,1.96,1.96H54.882a1.96,1.96,0,0,0,1.96-1.96V54.287H71.5a1.959,1.959,0,0,0,1.96-1.96l.006-15.8A1.961,1.961,0,0,0,71.5,34.563H56.842V25.317c0-4.444,1.059-6.7,6.848-6.7l8.4,0a1.96,1.96,0,0,0,1.959-1.96V1.98A1.961,1.961,0,0,0,72.089.02Z" fill="#ff9f1c"/>
  </g>
</svg>
