<svg id="instagramlaranja" xmlns="http://www.w3.org/2000/svg" width="512" height="512" viewBox="0 0 512 512">
  <path id="Caminho_1" data-name="Caminho 1" d="M437,0H75A75.089,75.089,0,0,0,0,75V437a75.089,75.089,0,0,0,75,75H437a75.09,75.09,0,0,0,75-75V75A75.089,75.089,0,0,0,437,0ZM257,390c-74.441,0-135-60.559-135-135s60.559-135,135-135,135,60.559,135,135S331.441,390,257,390ZM407,150a45,45,0,1,1,45-45A45.052,45.052,0,0,1,407,150Zm0,0" fill="#ff9f1c"/>
  <path id="Caminho_2" data-name="Caminho 2" d="M407,90a15,15,0,1,0,15,15A15.009,15.009,0,0,0,407,90Zm0,0" fill="#ff9f1c"/>
  <path id="Caminho_3" data-name="Caminho 3" d="M257,150A105,105,0,1,0,362,255,105.127,105.127,0,0,0,257,150Zm0,0" fill="#ff9f1c"/>
</svg>
