<svg xmlns="http://www.w3.org/2000/svg" width="1013.995" height="815.063" viewBox="0 0 1013.995 815.063">
  <g id="Logo" transform="translate(-549.005 -117.938)">
    <g id="Sacola">
      <path id="Caminho_9" data-name="Caminho 9" d="M1548.971,830.768l-26.529,32.225" transform="translate(-252.182 -149.787)" fill="none" stroke="#fff" stroke-width="2"/>
      <path id="Caminho_3" data-name="Caminho 3" d="M1374.959,659.145c3.816-9.539-92.867-149.855-92.867-149.855" transform="translate(-78.237 21.906)" fill="#fff" stroke="#fff" stroke-width="2"/>
      <path id="Frente" d="M1245.184,510.8c-.677,2.331,1.624,9.672,5.87,20.452,3.87,9.827,9.559,22.874,15.922,37.18,1.887,4.242,3.833,8.595,5.874,13.154,21.227,47.417,46.189,102.554,40.377,109.177-27.344,31.16-137.358,45.786-137.358,45.786s-73.13-158.978-66.771-165.337c.4-.4,32.127-19.831,59.776-31.8C1206.722,523.039,1245.184,510.8,1245.184,510.8Z" transform="translate(-42.577 22.084)" fill="#fff" stroke="#fff" stroke-width="2"/>
      <g id="Alça">
        <path id="Caminho_7" data-name="Caminho 7" d="M1182.249,603.984" transform="translate(-82.685 -60.369)" fill="none" stroke="#fff" stroke-width="2"/>
        <path id="Caminho_8" data-name="Caminho 8" d="M1186.285,619.387s-3.7-63.048,8.9-71.644c4.05-2.765,11.3,1.162,18.293,7.5,1.187,1.074,2.516,2.254,3.874,3.547,2.338,2.224,24.032,29.729,25.612,35.417" transform="translate(-83.441 -48.137)" fill="none" stroke="#fff" stroke-width="2"/>
        <path id="Caminho_6" data-name="Caminho 6" d="M1189.21,618.862c.408-3.241-2.021-11.716-3.4-18.1-1.835-8.492-3.617-16.383-3.56-22.882.171-19.358,7.9-28.614,13.221-31.018,16.469-7.439,49.221,47.927,49.221,47.927" transform="translate(-82.684 -47.993)" fill="none" stroke="#fff" stroke-width="2"/>
      </g>
      <path id="Caminho_11" data-name="Caminho 11" d="M1245.184,510.8c-.677,2.331,1.624,9.672,5.87,20.452,3.87,9.827,9.559,22.874,15.922,37.18,1.887,4.242,3.833,8.595,5.874,13.154,21.227,47.417,46.189,102.554,40.377,109.177-27.344,31.16-137.358,45.786-137.358,45.786s-73.13-158.978-66.771-165.337c.4-.4,32.127-19.831,59.776-31.8C1206.722,523.039,1245.184,510.8,1245.184,510.8Z" transform="translate(-43.577 22.084)" fill="#fff" stroke="#fff" stroke-width="2"/>
      <path id="Caminho_4" data-name="Caminho 4" d="M1112.624,536.079c1.42-.882,32.976-22.113,67.335-36.757,18.589-7.923,31.326-12.39,42.561-16.118,9.12-3.026,17.152-5.641,27.185-8.23.061-.016.5-.086.745-.149" transform="translate(-45.774 56.962)" fill="none" stroke="#fff" stroke-width="2"/>
      <g id="Relógio">
        <g id="Caminho_5" data-name="Caminho 5" transform="translate(1106.789 595.879)">
          <path d="M 71.82005310058594 103.9253387451172 C 63.97383499145508 103.9253387451172 56.01619338989258 100.9267730712891 50.72220611572266 98.41128540039063 C 44.81197738647461 95.60298156738281 40.07316589355469 92.36618041992188 38.73142242431641 91.0628662109375 C 31.62043571472168 84.15714263916016 25.95827865600586 77.07186889648438 21.90214920043945 70.00379943847656 C 19.43662071228027 65.70745849609375 17.52760696411133 61.34779739379883 16.22813606262207 57.04592514038086 C 14.79023551940918 52.28577041625977 14.06116390228271 47.47114181518555 14.06116390228271 42.73578262329102 C 14.06116390228271 39.25152587890625 14.82850742340088 35.18436813354492 16.28023529052734 30.97401237487793 C 17.77816390991211 26.6296558380127 19.94889259338379 22.31484031677246 22.55773544311523 18.49604034423828 C 25.41266441345215 14.31702709197998 28.65974998474121 10.87608432769775 32.20883560180664 8.268797874450684 C 36.11482238769531 5.399298191070557 40.24449157714844 3.662869691848755 44.48311996459961 3.107755422592163 C 45.58080673217773 2.963969707489014 46.73396301269531 2.891069650650024 47.91060638427734 2.891069650650024 C 51.70260620117188 2.891069650650024 55.92242050170898 3.641969680786133 60.45285034179688 5.122912406921387 C 64.41539001464844 6.418212413787842 68.62446594238281 8.272526741027832 72.96310424804688 10.63432693481445 C 75.07699584960938 11.78487014770508 78.81136322021484 14.42995548248291 82.95291900634766 18.40326881408691 C 86.28277587890625 21.59784126281738 91.01153564453125 26.77404022216797 94.62947845458984 33.29185485839844 C 98.78690338134766 40.78124237060547 101.2658462524414 48.98984146118164 102.6133499145508 54.55719757080078 C 104.3987045288086 61.93362808227539 105.0348358154297 68.05287170410156 105.0348358154297 71.31993865966797 C 105.0348358154297 78.37847137451172 101.8179779052734 86.00479888916016 96.2091064453125 92.24346923828125 C 93.41703796386719 95.34905242919922 90.21685028076172 97.92240905761719 86.69743347167969 99.89206695556641 C 83.00156402587891 101.9604873657227 79.14134979248047 103.2502517700195 75.22399139404297 103.7255401611328 C 74.13143920898438 103.8581161499023 72.98619079589844 103.9253387451172 71.82005310058594 103.9253387451172 Z" stroke="none"/>
          <path d="M 71.82003784179688 102.9253387451172 C 72.94599151611328 102.9253387451172 74.05071258544922 102.8605728149414 75.10354614257813 102.7328033447266 C 78.89097595214844 102.2732925415039 82.62741088867188 101.02392578125 86.20906829833984 99.01943206787109 C 89.63256072998047 97.10346221923828 92.74685668945313 94.5987548828125 95.4654541015625 91.57491302490234 C 100.9114074707031 85.51744842529297 104.0348205566406 78.13478851318359 104.0348205566406 71.31993865966797 C 104.0348205566406 68.11054229736328 103.4060668945313 62.0833740234375 101.6414108276367 54.79243469238281 C 100.3084564208984 49.28514099121094 97.85823822021484 41.16869735717773 93.75514984130859 33.77718734741211 C 90.19770050048828 27.36837387084961 85.54082489013672 22.27182006835938 82.2606201171875 19.12487983703613 C 78.18586730957031 15.21564960479736 74.44792938232422 12.58100414276123 72.48499298095703 11.51261901855469 C 68.19969940185547 9.179864883422852 64.04695892333984 7.349849700927734 60.14213180541992 6.073403835296631 C 55.71217727661133 4.625311374664307 51.59688568115234 3.891065359115601 47.91059112548828 3.891065359115601 C 46.77720642089844 3.891065359115601 45.66774749755859 3.961111545562744 44.61297607421875 4.099280834197998 C 40.54352951049805 4.63224983215332 36.56936264038086 6.306219100952148 32.80088424682617 9.07469654083252 C 29.34300804138184 11.61498832702637 26.17453193664551 14.97457313537598 23.38343811035156 19.06014251708984 C 20.8242073059082 22.80631065368652 18.69486999511719 27.03878784179688 17.22562408447266 31.29997253417969 C 15.80962371826172 35.40671157836914 15.06116199493408 39.36115646362305 15.06116199493408 42.73579025268555 C 15.06116199493408 47.37311172485352 15.77586936950684 52.09045028686523 17.18542289733887 56.75675582885742 C 18.46294593811035 60.98601913452148 20.34169960021973 65.2755126953125 22.76947021484375 69.50606536865234 C 26.77922439575195 76.49332427978516 32.38396072387695 83.50468444824219 39.42817687988281 90.34555816650391 C 40.43334579467773 91.32194519042969 44.78080749511719 94.48101806640625 51.1513786315918 97.50806427001953 C 56.35245513916016 99.97940063476563 64.16020965576172 102.9253387451172 71.82003784179688 102.9253387451172 M 71.82003784179688 104.9253387451172 C 56.82157135009766 104.9253387451172 40.67494583129883 94.34484100341797 38.03465270996094 91.78017425537109 C 25.99973106384277 80.09263610839844 13.06116199493408 63.07278823852539 13.06116199493408 42.73579025268555 C 13.06116199493408 28.31563377380371 25.75274658203125 4.552249908447266 44.353271484375 2.116219282150269 C 45.51845932006836 1.963589429855347 46.7064323425293 1.891061902046204 47.91059875488281 1.891061902046204 C 56.23276519775391 1.891061902046204 65.35276794433594 5.352973461151123 73.44122314453125 9.756019592285156 C 77.91499328613281 12.19101905822754 88.82391357421875 20.77252769470215 95.50380706787109 32.80652618408203 C 103.013053894043 46.33403396606445 106.0348205566406 63.81568145751953 106.0348205566406 71.31993865966797 C 106.0348205566406 86.39420318603516 92.04606628417969 102.6918792724609 75.34443664550781 104.7182464599609 C 74.18170166015625 104.8593521118164 73.00431060791016 104.9253387451172 71.82003784179688 104.9253387451172 Z" stroke="none"/>
        </g>
        <path id="Caminho_10" data-name="Caminho 10" d="M0,0,20.065,40.646" transform="translate(1146.916 605.322)" fill="#fff" stroke="#fff" stroke-width="3"/>
        <line id="Linha_2" data-name="Linha 2" y1="14.264" x2="28.229" transform="translate(1138.271 644.5)" fill="none" stroke="#fff" stroke-width="3"/>
      </g>
    </g>
    <g id="Boneco" transform="translate(676.035 117.938)">
      <g id="Agrupar_1" data-name="Agrupar 1" transform="translate(-126 9)">
        <path id="Caminho_1" data-name="Caminho 1" d="M561.17,483.857c8.891-15.764,1.1-41.267-15.886-51.294-77.7-45.8-107.125-78.673-141.178-116.751-15.253-17.06-31.047-34.7-51.98-54.848a38.35,38.35,0,0,0-6.235-4.865,110.078,110.078,0,0,0-26.315-16.262,88.808,88.808,0,0,0-21.246-6.753,170.218,170.218,0,0,0-23.39-1.9h-.3c-1.224.031-2.475.234-3.689.3-.907.036-1.785-.066-2.694,0-1.482.143-2.984.419-4.467.605-1.581.177-3.117.36-4.7.609-77.905,10.842-159.9,64.749-250.3,164.743-13.81,15.273-11.052,37.576,6.16,49.822a43.111,43.111,0,0,0,24.979,7.794c11.694,0,23.283-4.536,31.176-13.263,38.835-42.94,72.846-73.037,102.314-94.158l-32.8,135.815c-4.7,19.531-1.566,47.959,10.672,62.6l-7.319,129.4L78.289,826.067C68.173,849.3,81.2,875.442,107.367,884.409a56.844,56.844,0,0,0,18.346,3.048c20.381,0,39.627-10.96,47.428-28.841l68.469-157.077a41.125,41.125,0,0,0,3.315-13.3l6.016-81.381,60.414,84.676,50.028,162.442c6.06,20.157,26.62,33.483,49.088,33.483a55.865,55.865,0,0,0,13.124-1.545c27.124-6.395,43.251-31.1,36.03-55.185L407.6,661.634a42.169,42.169,0,0,0-6.16-12.491L319.074,533.691a58.325,58.325,0,0,0,6.193-15.142l33.682-139.438c31.53,34.28,67.8,68.677,142.17,112.491,5.633,3.321,16.939,9.366,31.952,7.43S563.172,485.581,561.17,483.857Z" transform="translate(0 -114.256)" fill="#fff" stroke="#fff" stroke-width="2"/>
        <circle id="Elipse_1" data-name="Elipse 1" cx="71.17" cy="71.17" r="71.17" transform="translate(290.813 -8)" fill="#fff" stroke="#fff" stroke-width="2"/>
      </g>
    </g>
    <text id="DATEMPO" transform="translate(1035 898)" fill="#fff" stroke="#707070" stroke-width="1" font-size="120" font-family="RacingSansOne-Regular, Racing Sans One"><tspan x="0" y="0">DATEMPO</tspan></text>
  </g>
</svg>
