<svg xmlns="http://www.w3.org/2000/svg" width="575.063" height="791.202" viewBox="0 0 575.063 791.202">
  <g id="Boneco" transform="translate(131.034 4)">
    <g id="Agrupar_1" data-name="Agrupar 1" transform="translate(-126 9)">
      <path id="Caminho_1" data-name="Caminho 1" d="M561.17,483.857c8.891-15.764,1.1-41.267-15.886-51.294-77.7-45.8-107.125-78.673-141.178-116.751-15.253-17.06-31.047-34.7-51.98-54.848a38.35,38.35,0,0,0-6.235-4.865,110.078,110.078,0,0,0-26.315-16.262,88.808,88.808,0,0,0-21.246-6.753,170.218,170.218,0,0,0-23.39-1.9h-.3c-1.224.031-2.475.234-3.689.3-.907.036-1.785-.066-2.694,0-1.482.143-2.984.419-4.467.605-1.581.177-3.117.36-4.7.609-77.905,10.842-159.9,64.749-250.3,164.743-13.81,15.273-11.052,37.576,6.16,49.822a43.111,43.111,0,0,0,24.979,7.794c11.694,0,23.283-4.536,31.176-13.263,38.835-42.94,72.846-73.037,102.314-94.158l-32.8,135.815c-4.7,19.531-1.566,47.959,10.672,62.6l-7.319,129.4L78.289,826.067C68.173,849.3,81.2,875.442,107.367,884.409a56.844,56.844,0,0,0,18.346,3.048c20.381,0,39.627-10.96,47.428-28.841l68.469-157.077a41.125,41.125,0,0,0,3.315-13.3l6.016-81.381,60.414,84.676,50.028,162.442c6.06,20.157,26.62,33.483,49.088,33.483a55.865,55.865,0,0,0,13.124-1.545c27.124-6.395,43.251-31.1,36.03-55.185L407.6,661.634a42.169,42.169,0,0,0-6.16-12.491L319.074,533.691a58.325,58.325,0,0,0,6.193-15.142l33.682-139.438c31.53,34.28,67.8,68.677,142.17,112.491,5.633,3.321,16.939,9.366,31.952,7.43S563.172,485.581,561.17,483.857Z" transform="translate(0 -114.256)" fill="none" stroke="#f26716" stroke-width="10"/>
      <circle id="Elipse_1" data-name="Elipse 1" cx="71.17" cy="71.17" r="71.17" transform="translate(290.813 -8)" fill="none" stroke="#f26716" stroke-width="10"/>
    </g>
  </g>
</svg>
