<svg xmlns="http://www.w3.org/2000/svg" width="430.117" height="411.002" viewBox="0 0 430.117 411.002">
  <g id="linkedinlaranja" transform="translate(0 -9.558)">
    <path id="LinkedIn" d="M430.117,261.543V420.56H337.929V272.193c0-37.271-13.334-62.707-46.7-62.707-25.473,0-40.632,17.142-47.3,33.724-2.432,5.928-3.058,14.179-3.058,22.477V420.56H148.648s1.242-251.285,0-277.32h92.21v39.309c-.187.294-.43.611-.606.9h.606v-.9c12.251-18.869,34.13-45.824,83.1-45.824C384.633,136.724,430.117,176.361,430.117,261.543ZM52.183,9.558C20.635,9.558,0,30.251,0,57.463,0,84.082,20.038,105.4,50.959,105.4h.616c32.159,0,52.159-21.317,52.159-47.94C103.128,30.251,83.734,9.558,52.183,9.558Zm-46.706,411H97.661V143.24H5.477Z" fill="#ff9f1c"/>
  </g>
</svg>
