<svg xmlns="http://www.w3.org/2000/svg" width="1291.502" height="840.563" viewBox="0 0 1291.502 840.563">
  <g id="LogoColorido3" transform="translate(-558.498 -29.438)">
    <g id="Sacola" transform="translate(16 -82)">
      <g id="Símbolo_2_1" data-name="Símbolo 2 – 1">
        <path id="Caminho_4" data-name="Caminho 4" d="M1112.624,536.079c1.42-.882,32.976-22.113,67.335-36.757,18.589-7.923,31.326-12.39,42.561-16.118,9.12-3.026,17.152-5.641,27.185-8.23.061-.016.5-.086.745-.149" transform="translate(-45.774 56.962)" fill="none" stroke="#ffb400" stroke-width="10"/>
        <path id="Caminho_11" data-name="Caminho 11" d="M1245.184,510.8c-.677,2.331,1.624,9.672,5.87,20.452,3.87,9.827,9.559,22.874,15.922,37.18,1.887,4.242,3.833,8.595,5.874,13.154,21.227,47.417,46.189,102.554,40.377,109.177-27.344,31.16-137.358,45.786-137.358,45.786s-73.13-158.978-66.771-165.337c.4-.4,32.127-19.831,59.776-31.8C1206.722,523.039,1245.184,510.8,1245.184,510.8Z" transform="translate(-43.577 22.084)" fill="none" stroke="#ffb400" stroke-width="10"/>
        <path id="Caminho_9" data-name="Caminho 9" d="M1548.971,830.768l-26.529,32.225" transform="translate(-252.182 -149.787)" fill="none" stroke="#ffb400" stroke-width="10"/>
        <path id="Caminho_3" data-name="Caminho 3" d="M1374.959,659.145c3.615-9.037-82.3-136.487-91.649-150.32l-.1-.153-.357-.527" transform="translate(-78.237 21.906)" fill="none" stroke="#ffb400" stroke-width="10"/>
      </g>
      <path id="Frente" d="M1245.184,510.8a5.189,5.189,0,0,0,0,2.322c.422,3.182,2.571,9.754,5.87,18.13,3.87,9.827,9.559,22.874,15.922,37.18,1.887,4.242,3.833,8.595,5.874,13.154,21.227,47.417,46.189,102.554,40.377,109.177-27.344,31.16-137.358,45.786-137.358,45.786s-73.13-158.978-66.771-165.337c.4-.4,32.127-19.831,59.776-31.8C1206.722,523.039,1245.184,510.8,1245.184,510.8Z" transform="translate(-42.577 22.084)" fill="none" stroke="#ffb400" stroke-width="10"/>
      <g id="Relógio">
        <g id="Caminho_5" data-name="Caminho 5" transform="translate(1106.789 595.879)" fill="none">
          <path d="M106.035,71.32c0,15.074-13.989,31.372-30.69,33.4-15.888,1.928-34.461-10.171-37.31-12.938C26,80.093,13.061,63.073,13.061,42.736c0-14.42,12.692-38.184,31.292-40.62,9.218-1.207,19.829,2.6,29.088,7.64C77.915,12.191,88.824,20.773,95.5,32.807,103.013,46.334,106.035,63.816,106.035,71.32Z" stroke="none"/>
          <path d="M 71.82006072998047 94.92536163330078 C 72.59949493408203 94.92536163330078 73.37454223632813 94.88395690917969 74.13999176025391 94.79107666015625 C 86.26832580566406 93.31954956054688 96.03482818603516 80.74774169921875 96.03482818603516 71.31993103027344 C 96.03482818603516 65.40850067138672 93.31442260742188 49.46640777587891 86.76046752929688 37.65981292724609 C 81.24440002441406 27.72240829467773 72.02118682861328 20.368408203125 68.66006469726563 18.53900337219238 C 60.67068481445313 14.18988418579102 53.49563598632813 11.89105033874512 47.91061019897461 11.89105033874512 C 47.14611053466797 11.89105033874512 46.39175415039063 11.93462181091309 45.65185165405273 12.03155040740967 C 33.39975357055664 13.63614559173584 23.06115913391113 32.03238296508789 23.06115913391113 42.73579025268555 C 23.06115913391113 56.38076400756836 30.44294548034668 70.46804809570313 44.91911315917969 84.5289306640625 C 47.30839920043945 86.64502716064453 60.61530303955078 94.92536163330078 71.82006072998047 94.92536163330078 M 71.82006072998047 104.9253463745117 C 56.82159042358398 104.9253463745117 40.67494583129883 94.34483337402344 38.03466033935547 91.78016662597656 C 25.99973106384277 80.09262084960938 13.06115913391113 63.07278823852539 13.06115913391113 42.73579025268555 C 13.06115913391113 28.31562232971191 25.75275421142578 4.552241325378418 44.35327911376953 2.116217374801636 C 45.51846694946289 1.963587760925293 46.70643615722656 1.891060590744019 47.91060256958008 1.891060590744019 C 56.23276519775391 1.891060590744019 65.35276794433594 5.352977275848389 73.44120788574219 9.756027221679688 C 77.91499328613281 12.19102668762207 88.82392120361328 20.77252769470215 95.50379943847656 32.80652618408203 C 103.0130386352539 46.33402633666992 106.0348281860352 63.81569290161133 106.0348281860352 71.31993103027344 C 106.0348281860352 86.39419555664063 92.04606628417969 102.6918869018555 75.34444427490234 104.71826171875 C 74.18170928955078 104.8593597412109 73.00433349609375 104.9253463745117 71.82006072998047 104.9253463745117 Z" stroke="none" fill="#ffb400"/>
        </g>
        <path id="Caminho_10" data-name="Caminho 10" d="M0,0,20.716,42.078" transform="translate(1146.916 605.322)" fill="none" stroke="#ffb400" stroke-width="10"/>
        <line id="Linha_2" data-name="Linha 2" y1="14.264" x2="28.229" transform="translate(1138.271 644.5)" fill="none" stroke="#ffb400" stroke-width="10"/>
      </g>
      <g id="Alça">
        <path id="Caminho_7" data-name="Caminho 7" d="M1182.249,603.984" transform="translate(-82.685 -60.369)" fill="none" stroke="#ffb400" stroke-width="10"/>
        <path id="Caminho_8" data-name="Caminho 8" d="M1186.285,619.387s-3.7-63.048,8.9-71.644c4.05-2.765,11.3,1.162,18.293,7.5,1.187,1.074,2.516,2.254,3.874,3.547,2.338,2.224,24.032,29.729,25.612,35.417" transform="translate(-83.441 -48.137)" fill="none" stroke="#ffb400" stroke-width="10"/>
        <path id="Caminho_6" data-name="Caminho 6" d="M1189.21,618.862c.408-3.241-2.021-11.716-3.4-18.1-1.835-8.492-3.617-16.383-3.56-22.882.171-19.358,7.9-28.614,13.221-31.018,16.469-7.439,49.221,47.927,49.221,47.927" transform="translate(-82.684 -47.993)" fill="none" stroke="#ffb400" stroke-width="10"/>
      </g>
    </g>
    <g id="Boneco" transform="translate(692.035 35.938)">
      <g id="Agrupar_1" data-name="Agrupar 1" transform="translate(-126 9)">
        <path id="Caminho_1" data-name="Caminho 1" d="M561.17,483.857c8.891-15.764,1.1-41.267-15.886-51.294-77.7-45.8-107.125-78.673-141.178-116.751-15.253-17.06-31.047-34.7-51.98-54.848a38.35,38.35,0,0,0-6.235-4.865,110.078,110.078,0,0,0-26.315-16.262,88.808,88.808,0,0,0-21.246-6.753,170.218,170.218,0,0,0-23.39-1.9h-.3c-1.224.031-2.475.234-3.689.3-.907.036-1.785-.066-2.694,0-1.482.143-2.984.419-4.467.605-1.581.177-3.117.36-4.7.609-77.905,10.842-159.9,64.749-250.3,164.743-13.81,15.273-11.052,37.576,6.16,49.822a43.111,43.111,0,0,0,24.979,7.794c11.694,0,23.283-4.536,31.176-13.263,38.835-42.94,72.846-73.037,102.314-94.158l-32.8,135.815c-4.7,19.531-1.566,47.959,10.672,62.6l-7.319,129.4L78.289,826.067C68.173,849.3,81.2,875.442,107.367,884.409a56.844,56.844,0,0,0,18.346,3.048c20.381,0,39.627-10.96,47.428-28.841l68.469-157.077a41.125,41.125,0,0,0,3.315-13.3l6.016-81.381,60.414,84.676,50.028,162.442c6.06,20.157,26.62,33.483,49.088,33.483a55.865,55.865,0,0,0,13.124-1.545c27.124-6.395,43.251-31.1,36.03-55.185L407.6,661.634a42.169,42.169,0,0,0-6.16-12.491L319.074,533.691a58.325,58.325,0,0,0,6.193-15.142l33.682-139.438c31.53,34.28,67.8,68.677,142.17,112.491,5.633,3.321,16.939,9.366,31.952,7.43S563.172,485.581,561.17,483.857Z" transform="translate(0 -114.256)" fill="none" stroke="#ffb400" stroke-width="15"/>
        <circle id="Elipse_1" data-name="Elipse 1" cx="71.17" cy="71.17" r="71.17" transform="translate(290.813 -8)" fill="none" stroke="#ffb400" stroke-width="15"/>
      </g>
    </g>
    <text id="DATEMPO" transform="translate(1058 818)" fill="#ffb400" stroke="#ffb400" stroke-width="1" font-size="180" font-family="RacingSansOne-Regular, Racing Sans One"><tspan x="0" y="0">DATEMPO</tspan></text>
  </g>
</svg>
