<svg xmlns="http://www.w3.org/2000/svg" xmlns:xlink="http://www.w3.org/1999/xlink" viewBox="0 0 164.39 178.94"><defs><style>.cls-1{isolation:isolate;}.cls-2{opacity:0.52;fill:url(#linear-gradient);}.cls-10,.cls-11,.cls-2,.cls-4,.cls-6,.cls-7,.cls-8{mix-blend-mode:multiply;}.cls-3{fill:#f7931e;}.cls-4{opacity:0.39;fill:url(#linear-gradient-2);}.cls-5{fill:none;stroke:#e2ba9f;stroke-miterlimit:10;stroke-width:3px;}.cls-6{fill:#f15a24;opacity:0.4;}.cls-7{opacity:0.11;fill:url(#linear-gradient-3);}.cls-8{opacity:0.18;fill:url(#linear-gradient-4);}.cls-15,.cls-9{fill:#fbb03b;}.cls-10{opacity:0.5;}.cls-11{opacity:0.8;fill:url(#linear-gradient-5);}.cls-12{fill:#fff;}.cls-13{opacity:0.13;}.cls-14{fill:#ffb400;}.cls-15{font-size:33.11px;font-family:RacingSansOne-Regular, Racing Sans One;letter-spacing:0.06em;}.cls-16{letter-spacing:0.02em;}.cls-17{letter-spacing:0.07em;}.cls-18{letter-spacing:0.06em;}.cls-19{letter-spacing:0.06em;}.cls-20{letter-spacing:0.06em;}.cls-21{letter-spacing:0.06em;}</style><linearGradient id="linear-gradient" y1="115.05" x2="132.22" y2="115.05" gradientUnits="userSpaceOnUse"><stop offset="0" stop-color="#fff" stop-opacity="0.5"/><stop offset="1"/></linearGradient><linearGradient id="linear-gradient-2" x1="62.43" y1="52.51" x2="132.74" y2="52.51" gradientUnits="userSpaceOnUse"><stop offset="0"/><stop offset="0.54" stop-color="#fff" stop-opacity="0.5"/><stop offset="1"/></linearGradient><linearGradient id="linear-gradient-3" x1="55.72" y1="127.02" x2="55.72" y2="36.05" xlink:href="#linear-gradient"/><linearGradient id="linear-gradient-4" x1="55.72" y1="140.49" x2="55.72" y2="119.88" xlink:href="#linear-gradient"/><linearGradient id="linear-gradient-5" x1="132.56" y1="48.63" x2="133.6" y2="48.63" xlink:href="#linear-gradient"/></defs><title>Logo6</title><g class="cls-1"><g id="Camada_1" data-name="Camada 1"><polygon class="cls-2" points="0 89.61 0 125.25 61.01 140.49 132.22 133.41 118.02 121.6 0 89.61"/><path class="cls-3" d="M62.43,43.56S88,45.81,129.85,40.31l2.89,12.8L129.45,64.7,68.66,59.1Z" transform="translate(-12 -7.51)"/><path class="cls-4" d="M62.43,43.56S88,45.81,129.85,40.31l2.89,12.8L129.45,64.7,68.66,59.1Z" transform="translate(-12 -7.51)"/><path class="cls-3" d="M84.81,48.75c-.68-4.69-1.68-14.82-.78-30,0-.13,1.26-11.95,16.57-11.2h0c.41,0,7.34.09,11.62,4.72,2.45,2.64,3.51,6.23,3.15,10.66,0,.14-1.41,13.44-2.38,23.74l-1.18-.11c1-10.3,2.36-23.61,2.38-23.74.32-4.07-.63-7.35-2.84-9.75-4-4.28-10.69-4.33-10.79-4.33h0C86.35,8,85.26,18.39,85.22,18.83c-.9,15.07.1,25.11.77,29.75Z" transform="translate(-12 -7.51)"/><path class="cls-3" d="M82.77,46.15s22,.36,32.08-1.93V54.74l-31.44.42Z" transform="translate(-12 -7.51)"/><path class="cls-5" d="M85.91,51.61" transform="translate(-12 -7.51)"/><polygon class="cls-6" points="117.85 32.8 105.85 49.49 105.85 56.13 117.44 57.19 120.74 45.6 117.85 32.8"/><polygon class="cls-3" points="61.01 39.45 62.56 50.99 59.97 45.12 61.01 39.45"/><polygon class="cls-3" points="119.89 37.56 117.85 32.8 117.85 44.1 119.89 44.1 119.89 37.56"/><polygon class="cls-3" points="61.01 140.49 59.97 45.12 61.01 39.45 50.43 36.05 50.43 127.02 61.01 140.49"/><polygon class="cls-7" points="60.06 53.83 59.97 45.12 61.01 39.45 50.43 36.05 50.43 127.02 55.72 119.88 60.06 53.83"/><polygon class="cls-3" points="132.22 40.54 119.89 37.56 119.89 45.87 132.22 40.54"/><polygon class="cls-8" points="61.01 140.49 55.72 119.88 50.43 127.02 61.01 140.49"/><path class="cls-9" d="M91.49,56c0-.11-2.86-11.64-1.44-33a12.06,12.06,0,0,1,4.19-8c3.36-2.84,8.3-3.88,14.67-3.11.11,0,13.34,1.15,14.32,15.06,0,.16,1.06,16,0,26.56l-1.18-.11c1-10.48,0-26.21,0-26.37C121.14,14.06,108.92,13,108.8,13c-6.06-.74-10.68.21-13.77,2.81A11.15,11.15,0,0,0,91.23,23c-1.4,21.2,1.39,32.54,1.42,32.65Z" transform="translate(-12 -7.51)"/><g class="cls-10"><path class="cls-3" d="M91.49,56c0-.11-2.86-11.64-1.44-33a12.06,12.06,0,0,1,4.19-8c3.36-2.84,8.3-3.88,14.67-3.11.11,0,13.34,1.15,14.32,15.06,0,.16,1.06,16,0,26.56l-1.18-.11c1-10.48,0-26.21,0-26.37C121.14,14.06,108.92,13,108.8,13c-6.06-.74-10.68.21-13.77,2.81A11.15,11.15,0,0,0,91.23,23c-1.4,21.2,1.39,32.54,1.42,32.65Z" transform="translate(-12 -7.51)"/></g><polygon class="cls-9" points="59.97 45.12 132.22 40.54 132.22 133.41 61.01 140.49 59.97 45.12"/><path class="cls-11" d="M133.6,48.52a1.77,1.77,0,0,0-.94,0v0a.78.78,0,0,0-.09.21l.41,0a.44.44,0,0,1,.25-.2.83.83,0,0,1,.38,0Z" transform="translate(-12 -7.51)"/><ellipse class="cls-12" cx="97.48" cy="89.85" rx="20.05" ry="22.74"/><path class="cls-12" d="M109.36,119.92h0a.25.25,0,0,1-.23-.26v-1.28a.25.25,0,0,1,.23-.26h0a.25.25,0,0,1,.23.26v1.28A.25.25,0,0,1,109.36,119.92Z" transform="translate(-12 -7.51)"/><path class="cls-12" d="M109.36,76.23h0a.25.25,0,0,1-.23-.26V74.69a.25.25,0,0,1,.23-.26h0a.25.25,0,0,1,.23.26V76A.25.25,0,0,1,109.36,76.23Z" transform="translate(-12 -7.51)"/><path class="cls-12" d="M129.54,97.32h0a.24.24,0,0,1-.23.25h-1.13a.25.25,0,0,1-.23-.26h0a.24.24,0,0,1,.23-.26h1.13A.24.24,0,0,1,129.54,97.32Z" transform="translate(-12 -7.51)"/><path class="cls-12" d="M91,97.39h0a.24.24,0,0,1-.23.25H89.66a.25.25,0,0,1-.23-.26h0a.24.24,0,0,1,.23-.26h1.13A.24.24,0,0,1,91,97.39Z" transform="translate(-12 -7.51)"/><path class="cls-12" d="M124.21,113h0a.21.21,0,0,1-.32,0l-.8-.91a.29.29,0,0,1,0-.36h0a.2.2,0,0,1,.32,0l.8.91A.27.27,0,0,1,124.21,113Z" transform="translate(-12 -7.51)"/><path class="cls-12" d="M97,82h0a.21.21,0,0,1-.32,0l-.8-.91a.27.27,0,0,1,0-.36h0a.21.21,0,0,1,.32,0l.8.91A.27.27,0,0,1,97,82Z" transform="translate(-12 -7.51)"/><path class="cls-12" d="M123.61,81.17h0a.27.27,0,0,1,0,.36l-.79.92a.22.22,0,0,1-.32,0h0a.27.27,0,0,1,0-.36l.79-.92A.21.21,0,0,1,123.61,81.17Z" transform="translate(-12 -7.51)"/><path class="cls-12" d="M96.68,112.41h0a.29.29,0,0,1,0,.37l-.79.92a.21.21,0,0,1-.32,0h0a.3.3,0,0,1,0-.37l.79-.91A.2.2,0,0,1,96.68,112.41Z" transform="translate(-12 -7.51)"/><path class="cls-12" d="M109.48,120.54A19.21,19.21,0,0,1,95,113.72a25.52,25.52,0,0,1,0-32.9,18.83,18.83,0,0,1,29,0,25.52,25.52,0,0,1,0,32.9A19.23,19.23,0,0,1,109.48,120.54Zm0-45.49c-10.8,0-19.59,10-19.59,22.22s8.79,22.22,19.59,22.22,19.59-10,19.59-22.22S120.29,75.05,109.48,75.05Z" transform="translate(-12 -7.51)"/><g class="cls-13"><path class="cls-12" d="M109.48,120a18.75,18.75,0,0,1-14.14-6.65,24.9,24.9,0,0,1,0-32.09,18.39,18.39,0,0,1,28.29,0,24.9,24.9,0,0,1,0,32.09A18.75,18.75,0,0,1,109.48,120Zm0-44.36c-10.53,0-19.1,9.72-19.1,21.67s8.57,21.67,19.1,21.67,19.11-9.72,19.11-21.67S120,75.6,109.48,75.6Z" transform="translate(-12 -7.51)"/><path class="cls-12" d="M109.48,120a18.81,18.81,0,0,1-14.18-6.66,25,25,0,0,1,0-32.16,18.41,18.41,0,0,1,28.36,0,24.93,24.93,0,0,1,0,32.16A18.78,18.78,0,0,1,109.48,120Zm0-45.38a18.7,18.7,0,0,0-14.11,6.63,24.83,24.83,0,0,0,0,32,18.34,18.34,0,0,0,28.23,0,24.83,24.83,0,0,0,0-32A18.71,18.71,0,0,0,109.48,74.63Zm0,44.36c-10.56,0-19.15-9.75-19.15-21.72s8.59-21.72,19.15-21.72,19.15,9.74,19.15,21.72S120,119,109.48,119Zm0-43.34c-10.5,0-19,9.7-19,21.62s8.55,21.61,19,21.61,19.06-9.69,19.06-21.61S120,75.65,109.48,75.65Z" transform="translate(-12 -7.51)"/></g><path class="cls-14" d="M109.36,97.44h0a.37.37,0,0,1-.35-.39V88.19a.38.38,0,0,1,.35-.39h0a.37.37,0,0,1,.34.39v8.86A.36.36,0,0,1,109.36,97.44Z" transform="translate(-12 -7.51)"/><path class="cls-14" d="M109.35,97.83h0s-.09-.17-.09-.38V88.59c0-.22,0-.39.09-.39h0c.05,0,.1.17.1.39v8.86C109.45,97.66,109.4,97.83,109.35,97.83Z" transform="translate(-12 -7.51)"/><path class="cls-14" d="M109.28,97.68h0c.13-.17.41-.14.64.07l9.36,8.81a.58.58,0,0,1,.17.7h0c-.13.17-.41.14-.64-.07l-9.35-8.81A.57.57,0,0,1,109.28,97.68Z" transform="translate(-12 -7.51)"/><path class="cls-14" d="M109.78,98.1h.09s-.08-.11.13.08l8.8,8.33c.2.19.34.39.31.43h0s-.23-.08-.43-.27l-8.8-8.2C109.68,98.27,109.75,98.15,109.78,98.1Z" transform="translate(-12 -7.51)"/><ellipse class="cls-14" cx="97.35" cy="89.93" rx="1" ry="1.13"/><ellipse class="cls-14" cx="97.35" cy="89.93" rx="0.64" ry="0.73"/><text class="cls-15" transform="matrix(0.97, 0, 0, 1, 8.47, 169.54)">D<tspan class="cls-16" x="23.76" y="0">A</tspan><tspan class="cls-17" x="44.44" y="0">T</tspan><tspan class="cls-18" x="65.12" y="0">E</tspan><tspan class="cls-19" x="83.75" y="0">M</tspan><tspan class="cls-20" x="113.68" y="0">P</tspan><tspan class="cls-21" x="135.39" y="0">O</tspan></text></g></g></svg>