<svg id="Camada_1" data-name="Camada 1" xmlns="http://www.w3.org/2000/svg" viewBox="0 0 315.97 99.97"><defs><style>.cls-1,.cls-2{fill:#e31122;}.cls-2{fill-rule:evenodd;}.cls-3{fill:none;stroke:#e31122;stroke-miterlimit:3.86;stroke-width:0;}</style></defs><title>logodia</title><path class="cls-1" d="M1038.57,521.29a11,11,0,1,1,11,11,11,11,0,0,1-11-11Z" transform="translate(-802 -490)"/><path class="cls-1" d="M1074.85,559a11,11,0,1,1,11,11,11,11,0,0,1-11-11Z" transform="translate(-802 -490)"/><path class="cls-2" d="M1030.88,590c-6.05,0-8.92-2.77-9.91-3.86a14.82,14.82,0,0,1-3.27-8.41V522.83c0-22.6,18.23-32.83,31.55-32.83s55.44.23,55.44.23c7.38,0,13.28,4.31,13.28,12.52v55.51c0,24.55-18.66,31.71-28.56,31.71h-58.53Zm-3.46-66.5c0-9.25,6.78-23.43,23.31-23.43h57.52v59.24c0,11-7.64,20.93-22.35,20.93h-58.3s-.18-51.8-.18-56.74Z" transform="translate(-802 -490)"/><path class="cls-3" d="M1030.88,590c-6.05,0-8.92-2.77-9.91-3.86a14.82,14.82,0,0,1-3.27-8.41V522.83c0-22.6,18.23-32.83,31.55-32.83s55.44.23,55.44.23c7.38,0,13.28,4.31,13.28,12.52v55.51c0,24.55-18.66,31.71-28.56,31.71h-58.53Zm-3.46-66.5c0-9.25,6.78-23.43,23.31-23.43h57.52v59.24c0,11-7.64,20.93-22.35,20.93h-58.3s-.18-51.8-.18-56.74Z" transform="translate(-802 -490)"/><polygon class="cls-1" points="236.42 78.77 255.81 78.77 294.73 21.12 275.44 21.12 236.42 78.77 236.42 78.77"/><path class="cls-2" d="M821.34,520.29h12c5.43,0,18.89,5.8,18.89,19.63,0,14.92-13.48,21.18-18.9,21.18h-12l-.12-21.21.13-19.6ZM802,500.7v79.64h29.49c7.37,0,19.59-1.37,29.57-12.34a40.71,40.71,0,0,0,11-28.58c0-6.42-.91-16.65-12.59-28.12-12-11.8-26.58-10.73-28.7-10.73L802,500.7Z" transform="translate(-802 -490)"/><polygon class="cls-1" points="80.32 31.95 80.32 90.34 100.5 90.34 100.5 22.79 80.32 31.95 80.32 31.95"/><path class="cls-2" d="M945.83,581.8c-19.27,0-33.53-14.67-33.53-33.35s14.74-34.3,33.52-34.3a33.91,33.91,0,0,1,34,33.82v32.79l-15-7.23s-8.21,8.27-19,8.27Zm-14.51-33.62A14.68,14.68,0,1,1,946,562.71a14.6,14.6,0,0,1-14.68-14.53Z" transform="translate(-802 -490)"/><path class="cls-3" d="M945.83,581.8c-19.27,0-33.53-14.67-33.53-33.35s14.74-34.3,33.52-34.3a33.91,33.91,0,0,1,34,33.82v32.79l-15-7.23s-8.21,8.27-19,8.27Zm-14.51-33.62A14.68,14.68,0,1,1,946,562.71a14.6,14.6,0,0,1-14.68-14.53Z" transform="translate(-802 -490)"/></svg>