<svg xmlns="http://www.w3.org/2000/svg" width="512" height="416" viewBox="0 0 512 416">
  <g id="twitterlaranja" transform="translate(0 -48)">
    <g id="Agrupar_1" data-name="Agrupar 1">
      <path id="Caminho_1" data-name="Caminho 1" d="M512,97.248a218.843,218.843,0,0,1-60.48,16.576A104.375,104.375,0,0,0,497.7,55.808a209.766,209.766,0,0,1-66.56,25.408,104.957,104.957,0,0,0-181.568,71.776A108.08,108.08,0,0,0,252,176.928c-87.264-4.256-164.48-46.08-216.352-109.792A104.992,104.992,0,0,0,67.9,207.424,103.659,103.659,0,0,1,20.48,194.5v1.152a105.447,105.447,0,0,0,84.1,103.136,104.763,104.763,0,0,1-27.52,3.456,92.808,92.808,0,0,1-19.872-1.792c13.6,41.568,52.192,72.128,98.08,73.12A210.907,210.907,0,0,1,25.12,418.336,196.6,196.6,0,0,1,0,416.9,295.5,295.5,0,0,0,161.024,464c193.152,0,298.752-160,298.752-298.688,0-4.64-.16-9.12-.384-13.568A209.4,209.4,0,0,0,512,97.248Z" fill="#ff9f1c"/>
    </g>
  </g>
</svg>
